# xmcd CD database file
#
# Track frame offsets:
#	150
#	15190
#	32602
#	56010
#	79865
#	102495
#	121097
#	145892
#	176970
#	198062
#	212472
#	225627
#
# Disc length: 3314 seconds
#
# Revision: 0
# Processed by: cddbd v1.5.1PL0 Copyright (c) Steve Scherf et al.
# Submitted via: CDex 1.51
#
DISCID=950cf00c
DTITLE=Hubart Laws - Bridge Over Troubled Water
DYEAR=2002
DGENRE=Jazz
TTITLE0=The Sound Of Silence
TTITLE1=So Long, Frank Lloyd Wright
TTITLE2=I Am A Rock
TTITLE3=April Come She Will
TTITLE4=El Condor Pasa
TTITLE5=Bridge Over Troubled Water
TTITLE6=The Boxer
TTITLE7=Scaborough Fair
TTITLE8=Mrs. Robinson
TTITLE9=America
TTITLE10=The 59th Street Bridge Song(Feelin' Groovy)
TTITLE11=Cecilla
EXTD=YEAR: 2002
EXTT0=
EXTT1=
EXTT2=
EXTT3=
EXTT4=
EXTT5=
EXTT6=
EXTT7=
EXTT8=
EXTT9=
EXTT10=
EXTT11=
PLAYORDER=
